# xmcd
#
# Track frame offsets: 
#        150
#        16579
#        27698
#        48403
#        69087
#        85799
#        103517
#        113212
#        130379
#        144665
#        161780
#        177018
#        188377
#        208665
#        222708
#        240295
#        261718
#        280418
#
# Disc length: 3932 seconds
#
# Revision: 0
# Processed by: cddbd v1.5.2PL0 Copyright (c) Steve Scherf et al.
# Submitted via: ExactAudioCopy v1.1
#
DISCID=050f5a12
DTITLE=Various Artist - De Lage Landenlijst 3 - CD 1
DYEAR=2018
DGENRE=Chanson
TTITLE0=Bløf Feat. Geike Arnaert - Zoutelande
TTITLE1=Will Tura - Eenzaam Zonder Jou
TTITLE2=The Scene - Blauw
TTITLE3=Raymond Van Het Groenewoud - Meisjes
TTITLE4=Cornelis Vreeswijk - De Nozem En De Non
TTITLE5=Bart Peeters - Heist Aan Zee
TTITLE6=Jules De Corte - Ik Zou Wel Eens Willen Weten
TTITLE7=Roosbeef - Vergis Ik Mij
TTITLE8=Gorki - Lieve Kleine Piranha
TTITLE9=Spinvis - Kom Terug
TTITLE10=Noordkaap - Een Heel Klein Beetje Oorlog
TTITLE11=Willem Vermandere - Bange Blankeman
TTITLE12=Henny Vrienten - Lieske
TTITLE13=Guido Belcanto - Mijn Verjaardag
TTITLE14=Veldhuis and Kemper - Ik Wou Dat Ik Jou Was
TTITLE15=Wim De Craene and Della Bosiers - Mensen Van 18
TTITLE16=Alex Roeka - Noem 'T Geen Liefde
TTITLE17=Brihang - Kleine Dagen
EXTD=
EXTT0=
EXTT1=
EXTT2=
EXTT3=
EXTT4=
EXTT5=
EXTT6=
EXTT7=
EXTT8=
EXTT9=
EXTT10=
EXTT11=
EXTT12=
EXTT13=
EXTT14=
EXTT15=
EXTT16=
EXTT17=
PLAYORDER=
